<svg width="32" height="32" viewBox="0 0 32 32" fill="none" xmlns="http://www.w3.org/2000/svg">
  <rect width="32" height="32" rx="6" fill="#0044b3"/>
  <path d="M8 12C8 10.5 9.5 8 12 8C14.5 8 16 10.5 16 12C16 13.5 14.5 16 12 16C9.5 16 8 13.5 8 12Z" fill="white"/>
  <path d="M16 20C16 18.5 17.5 16 20 16C22.5 16 24 18.5 24 20C24 21.5 22.5 24 20 24C17.5 24 16 21.5 16 20Z" fill="white"/>
  <path d="M8 20C8 18.5 9.5 16 12 16C14.5 16 16 18.5 16 20C16 21.5 14.5 24 12 24C9.5 24 8 21.5 8 20Z" fill="white"/>
  <path d="M16 12C16 10.5 17.5 8 20 8C22.5 8 24 10.5 24 12C24 13.5 22.5 16 20 16C17.5 16 16 13.5 16 12Z" fill="white"/>
</svg>
